<svg xmlns="http://www.w3.org/2000/svg" width="842" height="220" viewBox="0 0 842 220" version="1.1"><path d="M 116.269 41.925 C 101.070 46.272, 86.177 57.362, 78.445 70.090 C 69.220 85.276, 65.317 112.509, 69.499 132.500 C 73.873 153.403, 88.978 170.387, 110.027 178.069 C 139.068 188.668, 168.773 179.860, 185.131 155.800 L 189.007 150.100 187.980 142.860 C 187.415 138.878, 186.706 135.373, 186.404 135.071 C 186.102 134.769, 179.475 131.089, 171.678 126.893 L 157.500 119.263 152.247 124.061 C 143.648 131.914, 131.794 135.030, 123.578 131.597 C 116.788 128.760, 106 116.588, 106 111.764 C 106 108.429, 109.838 102.313, 114.514 98.197 C 126.044 88.047, 144.331 88.641, 153.843 99.474 L 157.171 103.264 165.835 98.691 C 170.601 96.176, 177.650 92.385, 181.500 90.267 L 188.500 86.417 188.180 80.458 C 187.601 69.655, 186.466 67.221, 178.153 58.946 C 164.784 45.641, 151.001 39.940, 132.520 40.071 C 126.105 40.117, 120.258 40.784, 116.269 41.925 M 121 47.495 C 107.045 50.643, 92.273 60.667, 85.087 71.865 C 83.389 74.511, 82 76.896, 82 77.166 C 82 77.436, 84.066 75.677, 86.592 73.257 C 96.448 63.814, 110.325 57.294, 125.436 55.008 C 135.172 53.534, 144.038 54.350, 153.890 57.624 C 163.129 60.694, 168.628 63.894, 175.565 70.234 C 183.253 77.260, 182.940 73.403, 175.131 64.895 C 161.685 50.244, 139.883 43.236, 121 47.495 M 120.168 62.533 C 109.331 64.886, 99.453 70.441, 90.980 78.949 C 78.864 91.114, 75 100.677, 75 118.500 C 75 136.342, 78.883 145.950, 90.970 158.018 C 110.957 177.973, 141.996 181.761, 164.931 167.044 C 169.545 164.083, 179.029 154.698, 178.979 153.142 C 178.968 152.789, 174.399 150.116, 168.825 147.203 L 158.692 141.906 155.596 144.902 C 150.132 150.189, 143.614 152.479, 134 152.490 C 126.508 152.499, 124.702 152.122, 118.775 149.314 C 105.518 143.034, 99 132.877, 99 118.500 C 99 104.222, 105.635 93.901, 118.811 87.680 C 124.705 84.897, 126.511 84.525, 134 84.547 C 143.616 84.575, 150.191 86.869, 155.568 92.071 L 158.636 95.040 168.301 89.952 C 173.617 87.154, 178.231 84.435, 178.555 83.911 C 178.879 83.387, 176.299 80.114, 172.822 76.637 C 159.586 63.401, 140.151 58.196, 120.168 62.533 M 106 126.422 C 106 128.667, 110.603 135.361, 114.514 138.803 C 119.989 143.623, 126.364 146, 133.812 146 C 142.077 146, 146.877 144.126, 152.493 138.706 C 158.250 133.151, 155.961 132.780, 172.884 142.011 C 181.493 146.707, 182.216 146.939, 181.647 144.815 C 181.306 143.542, 181.021 141.751, 181.014 140.837 C 181.005 139.748, 177.288 137.207, 170.250 133.478 C 158.392 127.195, 160.135 127.231, 151.371 133.087 C 137.267 142.510, 121.491 141.341, 110.250 130.038 C 107.912 127.688, 106 126.061, 106 126.422" stroke="none" fill="#fbf3f0" fill-rule="evenodd"/><path d="M 106 7.936 C 57.962 18.081, 23 61.494, 23 111 C 23 161.348, 57.219 203.403, 107.361 214.680 C 116.118 216.649, 138.942 216.899, 147.500 215.120 C 170.575 210.322, 188.453 200.563, 204.194 184.171 C 225.443 162.044, 235.263 135.857, 233.695 105.500 C 231.193 57.038, 195.879 16.538, 148.162 7.405 C 137.839 5.429, 116.605 5.696, 106 7.936 M 116.269 41.925 C 101.070 46.272, 86.177 57.362, 78.445 70.090 C 69.220 85.276, 65.317 112.509, 69.499 132.500 C 73.873 153.403, 88.978 170.387, 110.027 178.069 C 139.068 188.668, 168.773 179.860, 185.131 155.800 L 189.007 150.100 187.980 142.860 C 187.415 138.878, 186.706 135.373, 186.404 135.071 C 186.102 134.769, 179.475 131.089, 171.678 126.893 L 157.500 119.263 152.247 124.061 C 143.648 131.914, 131.794 135.030, 123.578 131.597 C 116.788 128.760, 106 116.588, 106 111.764 C 106 108.429, 109.838 102.313, 114.514 98.197 C 126.044 88.047, 144.331 88.641, 153.843 99.474 L 157.171 103.264 165.835 98.691 C 170.601 96.176, 177.650 92.385, 181.500 90.267 L 188.500 86.417 188.180 80.458 C 187.601 69.655, 186.466 67.221, 178.153 58.946 C 164.784 45.641, 151.001 39.940, 132.520 40.071 C 126.105 40.117, 120.258 40.784, 116.269 41.925 M 121 47.495 C 107.045 50.643, 92.273 60.667, 85.087 71.865 C 83.389 74.511, 82 76.896, 82 77.166 C 82 77.436, 84.066 75.677, 86.592 73.257 C 96.448 63.814, 110.325 57.294, 125.436 55.008 C 135.172 53.534, 144.038 54.350, 153.890 57.624 C 163.129 60.694, 168.628 63.894, 175.565 70.234 C 183.253 77.260, 182.940 73.403, 175.131 64.895 C 161.685 50.244, 139.883 43.236, 121 47.495 M 120.168 62.533 C 109.331 64.886, 99.453 70.441, 90.980 78.949 C 78.864 91.114, 75 100.677, 75 118.500 C 75 136.342, 78.883 145.950, 90.970 158.018 C 110.957 177.973, 141.996 181.761, 164.931 167.044 C 169.545 164.083, 179.029 154.698, 178.979 153.142 C 178.968 152.789, 174.399 150.116, 168.825 147.203 L 158.692 141.906 155.596 144.902 C 150.132 150.189, 143.614 152.479, 134 152.490 C 126.508 152.499, 124.702 152.122, 118.775 149.314 C 105.518 143.034, 99 132.877, 99 118.500 C 99 104.222, 105.635 93.901, 118.811 87.680 C 124.705 84.897, 126.511 84.525, 134 84.547 C 143.616 84.575, 150.191 86.869, 155.568 92.071 L 158.636 95.040 168.301 89.952 C 173.617 87.154, 178.231 84.435, 178.555 83.911 C 178.879 83.387, 176.299 80.114, 172.822 76.637 C 159.586 63.401, 140.151 58.196, 120.168 62.533 M 258.418 67.917 C 254.263 69.702, 251 74.837, 251 79.591 C 251 83.250, 251.601 84.685, 254.423 87.765 C 257.840 91.493, 257.861 91.500, 266 91.500 C 274.139 91.500, 274.160 91.493, 277.577 87.765 C 280.421 84.661, 281 83.263, 281 79.500 C 281 75.746, 280.420 74.338, 277.613 71.274 C 274.411 67.781, 273.848 67.563, 267.363 67.300 C 263.588 67.147, 259.563 67.425, 258.418 67.917 M 558.418 67.917 C 554.263 69.702, 551 74.837, 551 79.591 C 551 83.250, 551.601 84.685, 554.423 87.765 C 557.840 91.493, 557.861 91.500, 566 91.500 C 574.139 91.500, 574.160 91.493, 577.577 87.765 C 580.421 84.661, 581 83.263, 581 79.500 C 581 75.746, 580.420 74.338, 577.613 71.274 C 574.411 67.781, 573.848 67.563, 567.363 67.300 C 563.588 67.147, 559.563 67.425, 558.418 67.917 M 638.418 67.917 C 634.263 69.702, 631 74.837, 631 79.591 C 631 83.250, 631.601 84.685, 634.423 87.765 C 637.840 91.493, 637.861 91.500, 646 91.500 C 654.139 91.500, 654.160 91.493, 657.577 87.765 C 660.421 84.661, 661 83.263, 661 79.500 C 661 75.746, 660.420 74.338, 657.613 71.274 C 654.411 67.781, 653.848 67.563, 647.363 67.300 C 643.588 67.147, 639.563 67.425, 638.418 67.917 M 464 115 L 464 151 477 151 L 490 151 490 147.568 L 490 144.135 494.967 147.478 C 507.078 155.628, 522.888 154.561, 532.193 144.965 C 537.819 139.163, 540 132.886, 540 122.500 C 540 112.114, 537.819 105.837, 532.193 100.035 C 522.888 90.439, 507.078 89.372, 494.967 97.522 L 490 100.865 490 89.932 L 490 79 477 79 L 464 79 464 115 M 593 115 L 593 151 606 151 L 619 151 619 115 L 619 79 606 79 L 593 79 593 115 M 676 85.300 C 676 92.297, 674.982 94, 670.800 94 C 668.267 94, 668 94.333, 668 97.500 C 668 100.902, 668.109 101, 671.901 101 L 675.802 101 676.181 118.250 C 676.517 133.562, 676.803 135.960, 678.721 139.595 C 684.553 150.645, 697.982 155.342, 713.951 151.917 L 719 150.834 719 141.012 L 719 131.190 713.250 131.701 C 708.380 132.134, 707.079 131.879, 704.750 130.034 L 702 127.855 702 114.427 L 702 101 710.500 101 L 719 101 719 97.500 L 719 94 710.500 94 L 702 94 702 86.500 L 702 79 689 79 L 676 79 676 85.300 M 332.806 93.399 C 328.003 94.692, 326.554 95.542, 321.750 99.887 L 319 102.374 319 98.187 L 319 94 306 94 L 293 94 293 122.500 L 293 151 306 151 L 319 151 319 133.068 L 319 115.136 321.750 113.214 C 325.625 110.505, 329.242 109.840, 332.989 111.146 C 338.113 112.932, 339 116.449, 339 134.968 L 339 151 351.500 151 L 364 151 364 129.468 C 364 106.062, 363.480 103.200, 358.237 97.726 C 353.360 92.635, 342.505 90.787, 332.806 93.399 M 403 93.098 C 396.213 94.423, 386.444 99.637, 383.063 103.739 C 373.940 114.808, 375.141 133.771, 385.546 142.906 C 397.364 153.282, 419.841 155.937, 440.250 149.368 L 445 147.839 445 137.920 C 445 132.464, 444.887 128.006, 444.750 128.013 C 444.613 128.020, 441.800 128.867, 438.500 129.896 C 429.783 132.612, 423.316 133.256, 416.218 132.113 C 409.739 131.069, 404 127.931, 404 125.432 C 404 124.230, 407.774 124, 427.500 124 L 451 124 450.990 119.750 C 450.978 114.433, 447.361 106.550, 442.902 102.123 C 434.606 93.886, 418.091 90.151, 403 93.098 M 253 122.383 L 253 151 266 151 L 279 151 279 122.383 L 279 93.767 276.750 94.458 C 267.520 97.292, 264.480 97.292, 255.250 94.458 L 253 93.767 253 122.383 M 553 122.383 L 553 151 566 151 L 579 151 579 122.383 L 579 93.767 576.750 94.458 C 567.520 97.292, 564.480 97.292, 555.250 94.458 L 553 93.767 553 122.383 M 633 122.383 L 633 151 646 151 L 659 151 659 122.383 L 659 93.767 656.750 94.458 C 647.520 97.292, 644.480 97.292, 635.250 94.458 L 633 93.767 633 122.383 M 727.231 96.250 C 734.642 107.664, 754.134 143.346, 753.728 144.754 C 753.451 145.715, 750.710 151.800, 747.637 158.278 L 742.049 170.056 755.610 169.778 L 769.172 169.500 783.146 140 C 790.832 123.775, 798.870 106.775, 801.008 102.222 L 804.896 93.944 791.333 94.222 L 777.770 94.500 772.759 105.750 C 770.003 111.938, 767.468 116.994, 767.124 116.988 C 766.781 116.981, 763.656 111.806, 760.180 105.488 L 753.859 94 739.815 94 L 725.770 94 727.231 96.250 M 408.500 109.155 C 405.995 110.525, 404 112.979, 404 114.691 C 404 115.687, 406.515 116, 414.500 116 C 421.333 116, 425 115.624, 425 114.923 C 425 114.331, 423.685 112.531, 422.077 110.923 C 419.731 108.577, 418.299 108.006, 414.827 108.030 C 412.447 108.047, 409.600 108.553, 408.500 109.155 M 494 112.695 C 490.507 114.496, 490.499 114.516, 490.209 122.200 C 489.931 129.559, 490.034 129.976, 492.551 131.625 C 495.923 133.835, 504.713 134.494, 508 132.784 C 514.043 129.641, 515.426 119.932, 510.625 114.350 C 507.588 110.819, 499.246 109.989, 494 112.695 M 106 126.422 C 106 128.667, 110.603 135.361, 114.514 138.803 C 119.989 143.623, 126.364 146, 133.812 146 C 142.077 146, 146.877 144.126, 152.493 138.706 C 158.250 133.151, 155.961 132.780, 172.884 142.011 C 181.493 146.707, 182.216 146.939, 181.647 144.815 C 181.306 143.542, 181.021 141.751, 181.014 140.837 C 181.005 139.748, 177.288 137.207, 170.250 133.478 C 158.392 127.195, 160.135 127.231, 151.371 133.087 C 137.267 142.510, 121.491 141.341, 110.250 130.038 C 107.912 127.688, 106 126.061, 106 126.422" stroke="none" fill="#ec1c24" fill-rule="evenodd"/></svg>