<svg id="Layer_1" data-name="Layer 1" xmlns="http://www.w3.org/2000/svg" viewBox="0 0 1564.92 254.26"><defs><style>.cls-1,.cls-2,.cls-3,.cls-4{fill:none;}.cls-1{stroke:#231f20;stroke-width:4.4px;}.cls-1,.cls-2,.cls-3{stroke-miterlimit:10;}.cls-2{stroke:#e41e26;}.cls-2,.cls-3{stroke-width:15px;}.cls-3{stroke:#ed1c24;}.cls-5{fill:#e41e26;}.cls-6{fill:#ed1c24;}</style></defs><title>owl-movie</title><path class="cls-1" d="M81.24,452.08" transform="translate(-203.69 -376.65)"/><path class="cls-1" d="M234,532.61" transform="translate(-203.69 -376.65)"/><path class="cls-2" d="M347.31,496.14A51.35,51.35,0,1,1,296,444.8,51.35,51.35,0,0,1,347.31,496.14Z" transform="translate(-203.69 -376.65)"/><path class="cls-2" d="M469.26,496.88a51.31,51.31,0,1,1-7.91-27.4A51.13,51.13,0,0,1,469.26,496.88Z" transform="translate(-203.69 -376.65)"/><path class="cls-2" d="M461.35,524.27v81.8a14.84,14.84,0,0,1-14.84,14.84H267.85A14.84,14.84,0,0,1,253,606.07v-81.8a51.35,51.35,0,0,0,94.3-28.13l19.27.74a51.34,51.34,0,0,0,94.77,27.39Z" transform="translate(-203.69 -376.65)"/><line class="cls-3" x1="162.89" y1="120.23" x2="143.62" y2="119.49"/><path class="cls-4" d="M357.18,461.08" transform="translate(-203.69 -376.65)"/><circle class="cls-5" cx="92.28" cy="119.49" r="11.23"/><circle class="cls-5" cx="214.23" cy="119.19" r="11.23"/><path class="cls-6" d="M377.35,557a3,3,0,0,1,0,3L358.91,592a2,2,0,0,1-3.46,0L337,560a3,3,0,0,1,0-3l18.44-31.95a2,2,0,0,1,3.46,0Z" transform="translate(-203.69 -376.65)"/><path class="cls-2" d="M575.17,501.12V618a2.91,2.91,0,0,1-3.64,2.82l-83.15-21.11a1,1,0,0,1-.73-.94V520.35a1,1,0,0,1,.73-1l.21,0,82.94-21.06A2.93,2.93,0,0,1,575.17,501.12Z" transform="translate(-203.69 -376.65)"/><path class="cls-6" d="M211.19,391.67c41.7,4.22,84.85,14.71,118.9,40.3,3.39,2.55,6.65,5.29,9.79,8.15,3.46,3.15,6.6,7.46,10.57,10,10.84,6.86,19.14-3.88,26.68-10.27a186.9,186.9,0,0,1,51.63-31c23.6-9.35,48.64-14.08,73.93-15.45,9.6-.51,9.67-15.52,0-15-43.85,2.37-87.16,14.47-123,40.51-4.13,3-8.17,6.14-12.08,9.41q-2.72,2.26-5.34,4.61c-.88.79-1.75,1.58-2.61,2.38l-1.55,1.45c-1.28,1.09-1.39,1.27-.35.55,1.5,1.32-.28-.89-.51-1.21a23.16,23.16,0,0,0-2.2-2.23q-2.24-2.22-4.57-4.34c-3.61-3.29-7.4-6.37-11.28-9.33-15.7-12-33.53-20.87-52.08-27.53-24.44-8.77-50.15-13.37-75.93-16-4-.41-7.5,3.74-7.5,7.5,0,4.4,3.45,7.09,7.5,7.5Z" transform="translate(-203.69 -376.65)"/><path class="cls-5" d="M699.82,630.9a69.2,69.2,0,0,1-29.4-6.1,70.89,70.89,0,0,1-22.7-16.4,74,74,0,0,1-14.6-23.2,72,72,0,0,1-5.1-26.7,68.8,68.8,0,0,1,5.4-27,74.81,74.81,0,0,1,15.1-22.9,70.69,70.69,0,0,1,23-15.9,72.07,72.07,0,0,1,29.1-5.8,68.6,68.6,0,0,1,52,22.6,76.57,76.57,0,0,1,14.5,23.3,71.5,71.5,0,0,1,5.1,26.5,69.4,69.4,0,0,1-5.3,26.8,73.38,73.38,0,0,1-15,22.9A72.18,72.18,0,0,1,729,625,70.67,70.67,0,0,1,699.82,630.9Zm-32.2-72a48.07,48.07,0,0,0,2,13.9,37.36,37.36,0,0,0,6,12,28.59,28.59,0,0,0,10.1,8.4,35.18,35.18,0,0,0,29.1-.1,27.76,27.76,0,0,0,10.1-8.7,39.56,39.56,0,0,0,5.8-12.2,50.18,50.18,0,0,0,1.9-13.7,47.44,47.44,0,0,0-2-13.8,38.1,38.1,0,0,0-6-11.9,27.73,27.73,0,0,0-10.2-8.3,32.74,32.74,0,0,0-14.4-3,30.84,30.84,0,0,0-14.5,3.2,29.83,29.83,0,0,0-10.1,8.5,36,36,0,0,0-5.9,12A49.9,49.9,0,0,0,667.62,558.9Z" transform="translate(-203.69 -376.65)"/><path class="cls-5" d="M827.62,487.9h35.8l13,43.8,13.2-43.8h35.8l-24,67.8,10.2,29,30.6-96.8h42.4L931,629.9h-33.8l-20.8-50.8-20.6,50.8H822l-53.6-142h42.2l30.8,96.8,9.8-29Z" transform="translate(-203.69 -376.65)"/><path class="cls-5" d="M994.42,629.9v-142h39v108h64.4v34Z" transform="translate(-203.69 -376.65)"/><path class="cls-5" d="M1258.42,629.9V555.1l-23.8,52.6h-20.8L1190,555.1v74.8h-39v-142h42.6l30.6,66.8,30.8-66.8h42.4v142Z" transform="translate(-203.69 -376.65)"/><path class="cls-5" d="M1385.81,630.9a69.2,69.2,0,0,1-29.4-6.1,70.89,70.89,0,0,1-22.7-16.4,74.16,74.16,0,0,1-14.6-23.2,72,72,0,0,1-5.1-26.7,68.8,68.8,0,0,1,5.4-27,74.81,74.81,0,0,1,15.1-22.9,70.8,70.8,0,0,1,23-15.9,72.14,72.14,0,0,1,29.1-5.8,68.6,68.6,0,0,1,52,22.6,76.38,76.38,0,0,1,14.5,23.3,71.5,71.5,0,0,1,5.1,26.5,69.4,69.4,0,0,1-5.3,26.8,73,73,0,0,1-15,22.9,72.18,72.18,0,0,1-22.9,16A70.64,70.64,0,0,1,1385.81,630.9Zm-32.2-72a48.42,48.42,0,0,0,2,13.9,37.36,37.36,0,0,0,6,12,28.67,28.67,0,0,0,10.1,8.4,35.18,35.18,0,0,0,29.1-.1,27.76,27.76,0,0,0,10.1-8.7,39.56,39.56,0,0,0,5.8-12.2,49.8,49.8,0,0,0,1.9-13.7,47.44,47.44,0,0,0-2-13.8,37.68,37.68,0,0,0-6-11.9,27.73,27.73,0,0,0-10.2-8.3,32.67,32.67,0,0,0-14.4-3,30.87,30.87,0,0,0-14.5,3.2,29.93,29.93,0,0,0-10.1,8.5,36.16,36.16,0,0,0-5.9,12A49.9,49.9,0,0,0,1353.61,558.9Z" transform="translate(-203.69 -376.65)"/><path class="cls-5" d="M1497,487.9l27.8,97,27.4-97h41l-49,142h-38.8l-49.6-142Z" transform="translate(-203.69 -376.65)"/><path class="cls-5" d="M1604,629.9v-142h39v142Z" transform="translate(-203.69 -376.65)"/><path class="cls-5" d="M1768.61,595.9v34h-101.2v-142h99.4v34h-60.4v20H1758v31.6h-51.6v22.4Z" transform="translate(-203.69 -376.65)"/></svg>