<svg id="Layer_1" data-name="Layer 1" xmlns="http://www.w3.org/2000/svg" viewBox="0 0 829.16 550.83"><defs><style>.cls-1,.cls-2,.cls-3{fill:none;}.cls-1{stroke:#e41e26;}.cls-1,.cls-2{stroke-miterlimit:10;stroke-width:32.82px;}.cls-2{stroke:#ed1c24;}.cls-4{fill:#e41e26;}.cls-5{fill:#ed1c24;}</style></defs><title>owl-movie-icon</title><path class="cls-1" d="M840.65,508.64A112.34,112.34,0,1,1,728.32,396.32,112.33,112.33,0,0,1,840.65,508.64Z" transform="translate(-526.42 -247.21)"/><path class="cls-1" d="M1107.46,510.26a112.3,112.3,0,1,1-17.31-59.93A111.67,111.67,0,0,1,1107.46,510.26Z" transform="translate(-526.42 -247.21)"/><path class="cls-1" d="M1090.15,570.19v179a32.46,32.46,0,0,1-32.46,32.46H666.81a32.46,32.46,0,0,1-32.46-32.46v-179a112.33,112.33,0,0,0,206.3-61.55l42.16,1.62a112.34,112.34,0,0,0,207.34,59.93Z" transform="translate(-526.42 -247.21)"/><line class="cls-2" x1="356.39" y1="263.04" x2="314.22" y2="261.43"/><path class="cls-3" d="M862.25,431.94" transform="translate(-526.42 -247.21)"/><circle class="cls-4" cx="201.9" cy="261.43" r="24.57"/><circle class="cls-4" cx="468.71" cy="260.76" r="24.57"/><path class="cls-5" d="M906.39,641.86a6.57,6.57,0,0,1,0,6.56L866,718.3a4.36,4.36,0,0,1-7.57,0l-40.36-69.88a6.57,6.57,0,0,1,0-6.56L858.47,572a4.37,4.37,0,0,1,7.57,0Z" transform="translate(-526.42 -247.21)"/><path class="cls-1" d="M1339.18,519.54V775.25a6.39,6.39,0,0,1-8,6.19L1149.3,735.25a2.13,2.13,0,0,1-1.6-2.06V561.61a2.11,2.11,0,0,1,1.6-2.06l.46-.12,181.47-46.07A6.38,6.38,0,0,1,1339.18,519.54Z" transform="translate(-526.42 -247.21)"/><path class="cls-5" d="M542.85,280.09q10.5,1.05,21,2.33l3.44.43s5.62.73,2.49.31q5.93.79,11.83,1.69,18.84,2.85,37.54,6.64a602.76,602.76,0,0,1,69,18.2q16.57,5.49,32.74,12.12l2.63,1.09c-3.49-1.46.85.38,1.29.57q3.86,1.66,7.7,3.42,7.54,3.45,15,7.18a376.43,376.43,0,0,1,52.22,31.73c2.08,1.51,4.14,3.07,6.2,4.62-3.22-2.43.23.19.74.59l3,2.39q5.94,4.8,11.66,9.86c7.25,6.43,13.81,13.45,20.77,20.17,13,12.51,31.38,11.55,44.24-.37,8-7.38,16-14.67,24.34-21.57,2.19-1.8,4.38-3.57,6.6-5.32l3.33-2.62c-2.92,2.26.82-.6,1.17-.86q6.76-5.12,13.74-10,13.41-9.32,27.51-17.6t29.11-15.62q7.18-3.5,14.5-6.74c1.34-.6,2.68-1.17,4-1.76,4.45-2-3,1.22,1.49-.63,2.73-1.12,5.46-2.24,8.2-3.32a475.6,475.6,0,0,1,76-22.56q10.17-2.14,20.42-3.88,5.61-.94,11.23-1.78l4.87-.7c2-.27,2.18-.3.54-.07l2.46-.32c14.88-1.87,29.83-3.13,44.81-3.92,8.55-.44,16.82-7.22,16.4-16.41-.38-8.5-7.22-16.89-16.4-16.4-96.66,5-192.27,32.15-270.94,90-9.85,7.24-19.48,14.81-28.76,22.76q-5.91,5.06-11.64,10.32-2.61,2.38-5.19,4.82l-1,1q-2.07,1.86,0,.18c-1.67.91-1.64.91.11,0,2.13-.15,2.23-.19.32-.13l1.66.24c-1.78-.54-1.76-.49.08.16,1.32,2.4.4.35-.47-.53-1.61-1.64-3.17-3.33-4.79-5q-5.29-5.39-10.86-10.5c-7.17-6.62-14.66-12.88-22.38-18.87-35.06-27.16-74.4-47.42-116-62.55-54-19.62-110.91-29.91-167.9-35.61-8.57-.86-16.78,8.16-16.41,16.41.43,9.62,7.23,15.49,16.41,16.41Z" transform="translate(-526.42 -247.21)"/></svg>