<svg id="Layer_1" data-name="Layer 1" xmlns="http://www.w3.org/2000/svg" viewBox="0 0 784.14 784.24"><defs><style>.cls-1{fill:#e32028;}</style></defs><title>owl-logo</title><path class="cls-1" d="M1078.81,517.22a23.42,23.42,0,1,0-23.41-23.41A23.41,23.41,0,0,0,1078.81,517.22Z" transform="translate(-567.93 -147.88)"/><path class="cls-1" d="M913.82,517.22a23.42,23.42,0,1,0-23.41-23.41A23.41,23.41,0,0,0,913.82,517.22Z" transform="translate(-567.93 -147.88)"/><path class="cls-1" d="M959.44,147.88C743,147.88,567.93,324,567.93,540.5c0,159.92,81.89,291.1,220.48,352.68v23.48c0,.07-1.08.14-1.08.21s-.56.12-.56.19a12.21,12.21,0,0,0-.09,1.47,11.57,11.57,0,0,0,.05,1.56c.11.53.25,1,.41,1.55s.25,1,.45,1.44.49.95.75,1.42a14.51,14.51,0,0,0,.72,1.28c.3.44.67.82,1,1.23s.6.77.94,1.13a14.52,14.52,0,0,0,1.23,1c.39.32.75.66,1.15.94s1,.52,1.45.78.83.48,1.27.68a19.12,19.12,0,0,0,1.86.58c.39.1.75-2.89,1.14-2.81,1,.22,2.11-2.82,3.22-2.82h.39c.47,0,.91,3.12,1.36,3.12,103.25-.35,185.16-29.53,243.45-89.91,85.23-88.29,92.34-210.05,92.67-242.19,36.57-32.86,59.16-77.35,59.16-126.79,0-100.5-93.19-182-207.72-182S783.91,370.52,783.91,471c0,10.88,2.26,21.59,4.34,31.95-.56,1.65.16,3.45.16,5.3V857.54c-118.79-58.61-188.24-175.48-188.24-317,0-198.71,161.11-360.37,359.82-360.37s360.1,161.66,360.1,360.37c0,185.65-139.21,339.78-323.63,358.51A16.12,16.12,0,0,0,998,931.17a15,15,0,0,0,1.63-.08c200.94-20.42,352.47-188.34,352.47-390.59C1352.07,324,1175.93,147.88,959.44,147.88Zm64.7,671.19c-28,28.9-62.29,50.16-102.69,63.71,1.88-2.08,3.73-4.22,5.52-6.42,55.46-68.19,50-178.06,44.83-223.86,6.53.55,13.15.85,19.84.85,42.43,0,81.91-11.24,114.83-30.48C1102.21,668.63,1085.88,755.26,1024.14,819.07Zm50.3-480.16c-24.27,10.55-56.77,32.5-75.69,77.42-21.64-47.24-59.61-69.08-86.37-79a201.51,201.51,0,0,1,162.06,1.56ZM873.75,360.09a15.73,15.73,0,0,0,5.18,1.48c4.08.4,96.22,10.88,103.81,124.78-4.41,8.45-7.2,20.55-7.2,34,0,25.54,22.2,46.26,22.2,46.26S1020,545.92,1020,520.38a83.55,83.55,0,0,0-4.23-27.07c3.82-119.49,89.85-131.3,93.69-131.76a14.23,14.23,0,0,0,1.5-.32c34.54,27.41,56.21,66.52,56.21,109.88,0,41.79-20.12,79.63-52.48,106.85l-.22.18c-31.68,26.55-75,43-122.78,43-96.76,0-175.48-67.29-175.48-150C816.16,427.16,838.39,387.56,873.75,360.09Zm66.36,287.22c4.49,33.8,15.38,145.6-36,208.7-20.12,24.75-49.75,39.29-82.75,43.38V571.59C847.81,608.33,890.27,635.77,940.11,647.31Z" transform="translate(-567.93 -147.88)"/></svg>