<svg id="Layer_1" data-name="Layer 1" xmlns="http://www.w3.org/2000/svg" viewBox="0 0 586.03 586.03"><defs><style>.cls-1{fill:none;stroke-width:10px;}.cls-1,.cls-2{stroke:#f26522;stroke-miterlimit:10;}.cls-2{fill:#f26522;stroke-width:2px;}</style></defs><title>personal-logo</title><circle class="cls-1" cx="293.01" cy="293.01" r="288.01"/><path class="cls-2" d="M483.79,490v47.78a15.93,15.93,0,0,0,15.93,15.93H547.5v63.71H483.79a63.73,63.73,0,0,1-63.72-63.71V362.59h63.72V426.3H547.5V490Z" transform="translate(-302.26 -141.16)"/><path class="cls-2" d="M579.35,490V617.43h63.71V505.94A15.93,15.93,0,0,1,659,490h47.77V617.43h63.72V362.59H706.76V426.3h-63.7A63.7,63.7,0,0,0,579.35,490Z" transform="translate(-302.26 -141.16)"/><circle class="cls-2" cx="149.67" cy="157.72" r="31.85"/><circle class="cls-2" cx="436.36" cy="157.72" r="31.85"/></svg>